STARTFONT 2.1
COMMENT AUTOMATICALLY GENERATED FILE. DO NOT EDIT!
COMMENT Generated with 'ucs2any.pl lubBI19.bdf ../../../fonts/util/map-ISO8859-1 ISO8859-1'
COMMENT from an ISO10646-1 encoded source BDF font.
COMMENT ucs2any.pl by Markus Kuhn <mkuhn@acm.org>, 2000.
COMMENT $Xorg: $
COMMENT ISO10646-1 extension by Markus Kuhn <mkuhn@acm.org>, 2001-03-20
COMMENT  (c) Copyright Bigelow & Holmes 1986, 1985. Lucida is a registered
COMMENT  trademark of Bigelow & Holmes. See LEGAL NOTICE file for terms 
COMMENT  of the license. 
FONT -B&H-LucidaBright-DemiBold-I-Normal--19-190-75-75-P-114-ISO8859-1
SIZE 19 72 72
FONTBOUNDINGBOX 31 22 -11 -4
STARTPROPERTIES 22
COMMENT Begin LogicalFontDescription
FONTNAME_REGISTRY ""
FOUNDRY "B&H"
FAMILY_NAME "LucidaBright"
WEIGHT_NAME "DemiBold"
SLANT "I"
SETWIDTH_NAME "Normal"
ADD_STYLE_NAME ""
PIXEL_SIZE 19
POINT_SIZE 190
RESOLUTION_X 100
RESOLUTION_Y 100
SPACING "P"
AVERAGE_WIDTH "114"
CHARSET_REGISTRY "ISO8859"
CHARSET_ENCODING "1"
COMMENT END LogicalFontDescription
COPYRIGHT "Copyright Bigelow & Holmes 1986, 1985."
FONT_ASCENT 17
FONT_DESCENT 4
DEFAULT_CHAR 0
FACE_NAME "Lucida Bright Demibold Italic"
X_HEIGHT 10
CAP_HEIGHT 14
ENDPROPERTIES
CHARS 192
STARTCHAR defaultchar
ENCODING 0
SWIDTH 827 0
DWIDTH 16 0
BBX 17 13 1 0
BITMAP
AAAA80
000000
800080
000000
800080
000000
800080
000000
800080
000000
800080
000000
AAAA80
ENDCHAR
STARTCHAR space
ENCODING 32
SWIDTH 333 0
DWIDTH 6 0
BBX 1 1 0 0
BITMAP
00
ENDCHAR
STARTCHAR exclam
ENCODING 33
SWIDTH 265 0
DWIDTH 5 0
BBX 5 14 1 0
BITMAP
38
38
38
30
30
30
30
20
60
60
00
00
E0
E0
ENDCHAR
STARTCHAR quotedbl
ENCODING 34
SWIDTH 451 0
DWIDTH 9 0
BBX 7 5 3 9
BITMAP
EE
CE
C4
44
44
ENDCHAR
STARTCHAR numbersign
ENCODING 35
SWIDTH 636 0
DWIDTH 13 0
BBX 12 14 2 0
BITMAP
0130
0220
0260
0440
7FF0
0880
0880
1900
1100
FFE0
2200
6400
4400
C800
ENDCHAR
STARTCHAR dollar
ENCODING 36
SWIDTH 636 0
DWIDTH 12 0
BBX 10 17 3 -2
BITMAP
0200
0FC0
1AC0
32C0
3400
3C00
1C00
1E00
0F00
0F00
0B80
0B80
CB00
CF00
FC00
1000
1000
ENDCHAR
STARTCHAR percent
ENCODING 37
SWIDTH 772 0
DWIDTH 15 0
BBX 15 14 1 0
BITMAP
3C0E
6618
6630
C620
C660
6CC0
7980
0378
06CC
0CCC
19CC
318C
60D8
C0F0
ENDCHAR
STARTCHAR ampersand
ENCODING 38
SWIDTH 773 0
DWIDTH 15 0
BBX 14 14 2 0
BITMAP
0380
0EC0
0CC0
0CC0
0C80
0F00
367C
6630
E730
E320
E3C0
E180
71C0
3EF0
ENDCHAR
STARTCHAR quotesingle
ENCODING 39
SWIDTH 247 0
DWIDTH 5 0
BBX 3 6 3 8
BITMAP
E0
E0
E0
40
40
40
ENDCHAR
STARTCHAR parenleft
ENCODING 40
SWIDTH 336 0
DWIDTH 6 0
BBX 7 18 2 -4
BITMAP
02
04
08
18
30
70
60
60
E0
E0
E0
E0
E0
E0
60
60
20
20
ENDCHAR
STARTCHAR parenright
ENCODING 41
SWIDTH 336 0
DWIDTH 6 0
BBX 7 18 0 -4
BITMAP
10
08
0C
0C
0E
0E
0E
0E
0E
0E
0C
1C
18
18
30
20
40
80
ENDCHAR
STARTCHAR asterisk
ENCODING 42
SWIDTH 434 0
DWIDTH 9 0
BBX 7 7 3 7
BITMAP
18
5A
D6
6C
38
EC
48
ENDCHAR
STARTCHAR plus
ENCODING 43
SWIDTH 636 0
DWIDTH 12 0
BBX 11 12 2 0
BITMAP
0200
0200
0600
0600
0600
0400
FFE0
0400
0C00
0C00
0800
0800
ENDCHAR
STARTCHAR comma
ENCODING 44
SWIDTH 265 0
DWIDTH 5 0
BBX 4 7 1 -4
BITMAP
70
70
70
20
60
60
C0
ENDCHAR
STARTCHAR hyphen
ENCODING 45
SWIDTH 289 0
DWIDTH 5 0
BBX 5 1 1 6
BITMAP
F8
ENDCHAR
STARTCHAR period
ENCODING 46
SWIDTH 265 0
DWIDTH 5 0
BBX 4 3 1 0
BITMAP
70
F0
E0
ENDCHAR
STARTCHAR slash
ENCODING 47
SWIDTH 515 0
DWIDTH 10 0
BBX 13 18 0 -4
BITMAP
0018
0010
0020
0060
0040
0080
0080
0100
0200
0200
0400
0C00
0800
1000
3000
2000
4000
C000
ENDCHAR
STARTCHAR zero
ENCODING 48
SWIDTH 623 0
DWIDTH 12 0
BBX 11 14 2 0
BITMAP
0780
1CC0
38E0
30E0
70E0
60E0
E0E0
E0E0
E0E0
E1C0
E1C0
E380
6300
3C00
ENDCHAR
STARTCHAR one
ENCODING 49
SWIDTH 636 0
DWIDTH 12 0
BBX 8 14 2 0
BITMAP
3F
07
06
0E
0E
0E
0E
0C
1C
1C
1C
1C
3C
FF
ENDCHAR
STARTCHAR two
ENCODING 50
SWIDTH 636 0
DWIDTH 12 0
BBX 11 14 2 0
BITMAP
0F80
19C0
10E0
30E0
00E0
01C0
0380
0600
0800
1000
2000
6000
FF80
FF80
ENDCHAR
STARTCHAR three
ENCODING 51
SWIDTH 636 0
DWIDTH 12 0
BBX 11 14 2 0
BITMAP
1F80
11C0
10E0
00C0
01C0
0380
1E00
0380
0180
01C0
01C0
C380
C700
FE00
ENDCHAR
STARTCHAR four
ENCODING 52
SWIDTH 636 0
DWIDTH 12 0
BBX 11 14 1 0
BITMAP
00E0
01E0
02C0
06C0
0CC0
19C0
31C0
6180
C180
FFE0
0380
0300
0300
0FC0
ENDCHAR
STARTCHAR five
ENCODING 53
SWIDTH 636 0
DWIDTH 12 0
BBX 11 14 2 0
BITMAP
1FE0
1FE0
1000
2000
2000
3C00
0700
0380
0180
01C0
0180
C380
C700
FC00
ENDCHAR
STARTCHAR six
ENCODING 54
SWIDTH 636 0
DWIDTH 12 0
BBX 11 14 2 0
BITMAP
07E0
0C60
1860
3000
7000
6F80
F1C0
E1C0
E0C0
E0C0
E1C0
6180
7300
3E00
ENDCHAR
STARTCHAR seven
ENCODING 55
SWIDTH 636 0
DWIDTH 12 0
BBX 11 14 3 0
BITMAP
7FE0
7FE0
0040
0080
0100
0200
0600
0C00
1800
3800
7000
7000
E000
E000
ENDCHAR
STARTCHAR eight
ENCODING 56
SWIDTH 636 0
DWIDTH 12 0
BBX 11 14 2 0
BITMAP
07C0
1CE0
3860
3860
38C0
1F80
0F00
37C0
61C0
E0E0
E0C0
E0C0
7180
3E00
ENDCHAR
STARTCHAR nine
ENCODING 57
SWIDTH 636 0
DWIDTH 12 0
BBX 11 14 1 0
BITMAP
0F80
18C0
30E0
70E0
70E0
70E0
70E0
71E0
1EE0
01C0
01C0
C380
C700
FC00
ENDCHAR
STARTCHAR colon
ENCODING 58
SWIDTH 265 0
DWIDTH 5 0
BBX 5 10 1 0
BITMAP
38
38
38
00
00
00
00
E0
E0
E0
ENDCHAR
STARTCHAR semicolon
ENCODING 59
SWIDTH 265 0
DWIDTH 5 0
BBX 5 14 1 -4
BITMAP
38
38
38
00
00
00
00
00
70
60
60
60
60
C0
ENDCHAR
STARTCHAR less
ENCODING 60
SWIDTH 636 0
DWIDTH 12 0
BBX 12 12 2 0
BITMAP
0010
0070
01C0
0700
1C00
F000
7000
1800
0E00
0380
01C0
0040
ENDCHAR
STARTCHAR equal
ENCODING 61
SWIDTH 636 0
DWIDTH 12 0
BBX 12 5 1 3
BITMAP
7FF0
0000
0000
0000
FFE0
ENDCHAR
STARTCHAR greater
ENCODING 62
SWIDTH 636 0
DWIDTH 12 0
BBX 12 12 0 0
BITMAP
2000
3800
1C00
0700
0180
00E0
00F0
0380
0E00
3800
E000
8000
ENDCHAR
STARTCHAR question
ENCODING 63
SWIDTH 493 0
DWIDTH 9 0
BBX 8 14 3 0
BITMAP
7E
47
C7
07
06
0C
08
30
30
60
00
00
E0
E0
ENDCHAR
STARTCHAR at
ENCODING 64
SWIDTH 861 0
DWIDTH 16 0
BBX 14 14 2 0
BITMAP
03E0
0C18
1008
2384
4464
4844
98C4
99C4
99C4
9AC8
9CF0
4000
2080
1F00
ENDCHAR
STARTCHAR A
ENCODING 65
SWIDTH 765 0
DWIDTH 15 0
BBX 15 14 0 0
BITMAP
0060
0060
00E0
0170
0170
0270
0630
0438
0838
0FF8
1038
201C
601C
F07E
ENDCHAR
STARTCHAR B
ENCODING 66
SWIDTH 651 0
DWIDTH 12 0
BBX 12 14 1 0
BITMAP
3FE0
0C70
0C70
1C70
1C60
18E0
1F80
19C0
38E0
38E0
38E0
30E0
71C0
FF80
ENDCHAR
STARTCHAR C
ENCODING 67
SWIDTH 740 0
DWIDTH 14 0
BBX 13 14 2 0
BITMAP
03F8
0E18
1818
3010
7000
7000
E000
E000
E000
E000
E000
7000
7860
1F80
ENDCHAR
STARTCHAR D
ENCODING 68
SWIDTH 822 0
DWIDTH 16 0
BBX 16 14 0 0
BITMAP
1FF8
0E1E
0E0E
0E07
1E07
1C07
1C07
1C07
1C0E
380E
381C
3818
3870
FFC0
ENDCHAR
STARTCHAR E
ENCODING 69
SWIDTH 630 0
DWIDTH 12 0
BBX 13 14 1 0
BITMAP
1FF8
0E18
0E18
0C00
1C00
1C60
1FC0
1C40
1800
3800
3800
3820
3860
FFE0
ENDCHAR
STARTCHAR F
ENCODING 70
SWIDTH 602 0
DWIDTH 11 0
BBX 13 14 1 0
BITMAP
1FF8
0E18
0E18
0C00
1C00
1C60
1FC0
1C40
1800
3800
3800
3800
3800
FC00
ENDCHAR
STARTCHAR G
ENCODING 71
SWIDTH 780 0
DWIDTH 15 0
BBX 13 14 2 0
BITMAP
03F8
0E18
1818
3818
7000
7000
E000
E000
E1F8
E0F0
E0E0
70E0
78E0
1F80
ENDCHAR
STARTCHAR H
ENCODING 72
SWIDTH 827 0
DWIDTH 16 0
BBX 17 14 1 0
BITMAP
1F9F80
0E0E00
0E0E00
0C0E00
1C0E00
1C0C00
1FFC00
1C1C00
181C00
381C00
381800
383800
383800
FCFC00
ENDCHAR
STARTCHAR I
ENCODING 73
SWIDTH 372 0
DWIDTH 7 0
BBX 9 14 0 0
BITMAP
1F80
0E00
0E00
0E00
0E00
1C00
1C00
1C00
1C00
1800
3800
3800
3800
FC00
ENDCHAR
STARTCHAR J
ENCODING 74
SWIDTH 478 0
DWIDTH 9 0
BBX 12 18 0 -4
BITMAP
03F0
01E0
01C0
01C0
01C0
0380
0380
0380
0380
0380
0380
0700
0700
0700
0700
CE00
CC00
F800
ENDCHAR
STARTCHAR K
ENCODING 75
SWIDTH 746 0
DWIDTH 14 0
BBX 15 14 1 0
BITMAP
1F9E
0E08
0E10
0C60
1CC0
1D00
1F00
1F80
1BC0
39E0
38E0
3870
3878
FCFC
ENDCHAR
STARTCHAR L
ENCODING 76
SWIDTH 611 0
DWIDTH 12 0
BBX 11 14 1 0
BITMAP
1F00
0E00
0E00
0C00
1C00
1C00
1C00
1C00
1800
3800
3800
3860
3860
FFC0
ENDCHAR
STARTCHAR M
ENCODING 77
SWIDTH 926 0
DWIDTH 18 0
BBX 19 14 1 0
BITMAP
1E01E0
0E0380
0E0780
0E0780
1B0B80
1B0B00
131300
132700
11A700
31C700
318600
218600
200E00
F81F00
ENDCHAR
STARTCHAR N
ENCODING 78
SWIDTH 797 0
DWIDTH 15 0
BBX 17 14 0 0
BITMAP
1E0F80
0E0200
0F0200
0F0600
1B8600
1B8400
11C400
11C400
10EC00
306C00
307800
203800
203800
F81800
ENDCHAR
STARTCHAR O
ENCODING 79
SWIDTH 831 0
DWIDTH 16 0
BBX 14 14 2 0
BITMAP
03F0
0E38
181C
381C
701C
701C
E01C
E01C
E01C
E038
E030
6060
70C0
1F00
ENDCHAR
STARTCHAR P
ENCODING 80
SWIDTH 628 0
DWIDTH 12 0
BBX 13 14 1 0
BITMAP
1FF0
0E38
0E38
0C38
1C38
1C70
1CE0
1F80
1800
3800
3800
3800
3800
FC00
ENDCHAR
STARTCHAR Q
ENCODING 81
SWIDTH 835 0
DWIDTH 16 0
BBX 16 18 2 -4
BITMAP
03E0
0E38
181C
381C
701C
701C
E01C
E01C
E01C
E03C
E038
6078
70F0
1FE0
0180
0080
0060
001F
ENDCHAR
STARTCHAR R
ENCODING 82
SWIDTH 711 0
DWIDTH 14 0
BBX 13 14 1 0
BITMAP
1FF0
0E38
0E38
0C38
1C38
1C70
1CE0
1F80
19C0
39C0
38E0
38E0
3870
FC78
ENDCHAR
STARTCHAR S
ENCODING 83
SWIDTH 587 0
DWIDTH 11 0
BBX 11 14 1 0
BITMAP
07E0
1C60
3860
3800
3800
3C00
1F00
0F80
0380
01C0
01C0
C380
C300
FE00
ENDCHAR
STARTCHAR T
ENCODING 84
SWIDTH 716 0
DWIDTH 14 0
BBX 13 14 3 0
BITMAP
FFF8
C718
8718
0700
0600
0E00
0E00
0E00
0E00
0C00
1C00
1C00
1C00
7E00
ENDCHAR
STARTCHAR U
ENCODING 85
SWIDTH 775 0
DWIDTH 15 0
BBX 14 14 3 0
BITMAP
FC3C
7818
7010
7010
7010
7020
6020
E020
E020
E060
E040
E040
7080
3F00
ENDCHAR
STARTCHAR V
ENCODING 86
SWIDTH 741 0
DWIDTH 14 0
BBX 14 14 3 0
BITMAP
F83C
7018
7010
3030
3820
3840
3840
3880
1D80
1D00
1E00
1E00
1C00
0800
ENDCHAR
STARTCHAR W
ENCODING 87
SWIDTH 922 0
DWIDTH 17 0
BBX 18 14 2 0
BITMAP
F843C0
70C180
70C100
71E300
71E200
72E600
72E400
74EC00
34E800
38F800
387000
307000
306000
206000
ENDCHAR
STARTCHAR X
ENCODING 88
SWIDTH 672 0
DWIDTH 13 0
BBX 15 14 0 0
BITMAP
1F1E
0E0C
0718
0730
0720
03C0
0380
03C0
07C0
0CC0
18E0
30E0
6070
F1F8
ENDCHAR
STARTCHAR Y
ENCODING 89
SWIDTH 669 0
DWIDTH 13 0
BBX 13 14 2 0
BITMAP
F878
7030
7060
3840
3880
1D00
1F00
0E00
1C00
1C00
1C00
1C00
3C00
7E00
ENDCHAR
STARTCHAR Z
ENCODING 90
SWIDTH 684 0
DWIDTH 13 0
BBX 13 14 1 0
BITMAP
1FF8
1870
10F0
01E0
01C0
0380
0780
0F00
0E00
1C00
3800
7820
7060
FFE0
ENDCHAR
STARTCHAR bracketleft
ENCODING 91
SWIDTH 336 0
DWIDTH 6 0
BBX 8 18 1 -4
BITMAP
0F
1C
1C
18
18
18
38
38
30
30
30
70
70
60
60
60
E0
F8
ENDCHAR
STARTCHAR backslash
ENCODING 92
SWIDTH 515 0
DWIDTH 10 0
BBX 6 18 3 -4
BITMAP
80
40
40
40
40
20
20
20
20
10
10
10
10
08
08
08
08
04
ENDCHAR
STARTCHAR bracketright
ENCODING 93
SWIDTH 336 0
DWIDTH 6 0
BBX 8 18 0 -4
BITMAP
1F
07
06
06
06
0E
0E
0C
0C
0C
1C
1C
18
18
18
38
38
F0
ENDCHAR
STARTCHAR asciicircum
ENCODING 94
SWIDTH 636 0
DWIDTH 12 0
BBX 11 12 1 2
BITMAP
0100
0100
0300
0780
0580
0C80
0880
10C0
3040
2040
4060
C060
ENDCHAR
STARTCHAR underscore
ENCODING 95
SWIDTH 500 0
DWIDTH 9 0
BBX 8 1 1 -2
BITMAP
FF
ENDCHAR
STARTCHAR grave
ENCODING 96
SWIDTH 599 0
DWIDTH 11 0
BBX 4 3 6 11
BITMAP
E0
60
30
ENDCHAR
STARTCHAR a
ENCODING 97
SWIDTH 634 0
DWIDTH 12 0
BBX 11 10 1 0
BITMAP
07E0
18E0
30C0
70C0
61C0
E3C0
E3C0
E580
F980
73E0
ENDCHAR
STARTCHAR b
ENCODING 98
SWIDTH 633 0
DWIDTH 12 0
BBX 11 14 2 0
BITMAP
7C00
1800
3800
3800
39C0
33E0
34E0
78E0
78E0
70C0
61C0
6180
E300
FC00
ENDCHAR
STARTCHAR c
ENCODING 99
SWIDTH 524 0
DWIDTH 10 0
BBX 10 10 1 0
BITMAP
0FC0
1880
3080
7000
E000
E000
E000
E000
6100
3E00
ENDCHAR
STARTCHAR d
ENCODING 100
SWIDTH 634 0
DWIDTH 12 0
BBX 12 14 1 0
BITMAP
00F0
0070
0060
00E0
07E0
18E0
30E0
70C0
61C0
E3C0
E3C0
E5C0
F980
73E0
ENDCHAR
STARTCHAR e
ENCODING 101
SWIDTH 548 0
DWIDTH 10 0
BBX 9 10 1 0
BITMAP
0F00
1380
3180
6380
E700
FC00
E000
E000
F180
3F00
ENDCHAR
STARTCHAR f
ENCODING 102
SWIDTH 415 0
DWIDTH 8 0
BBX 10 19 1 -4
BITMAP
07C0
0CC0
0CC0
1C00
1C00
7F00
3800
3800
3800
3000
3000
7000
7000
7000
7000
6000
E000
E000
E000
ENDCHAR
STARTCHAR g
ENCODING 103
SWIDTH 628 0
DWIDTH 12 0
BBX 12 14 1 -4
BITMAP
03F0
0C70
1860
3060
70E0
71E0
73E0
76C0
7DC0
79C0
01C0
8180
E300
7E00
ENDCHAR
STARTCHAR h
ENCODING 104
SWIDTH 656 0
DWIDTH 12 0
BBX 11 14 2 0
BITMAP
7C00
1800
3800
3800
39C0
3BE0
36E0
74E0
78C0
71C0
71C0
61C0
E1C0
E1E0
ENDCHAR
STARTCHAR i
ENCODING 105
SWIDTH 319 0
DWIDTH 6 0
BBX 6 14 2 0
BITMAP
1C
1C
00
00
F8
38
38
30
70
70
70
60
E0
F8
ENDCHAR
STARTCHAR j
ENCODING 106
SWIDTH 381 0
DWIDTH 7 0
BBX 10 18 0 -4
BITMAP
01C0
01C0
0000
0000
0780
0380
0380
0300
0300
0700
0700
0700
0600
0600
0E00
CC00
CC00
F000
ENDCHAR
STARTCHAR k
ENCODING 107
SWIDTH 626 0
DWIDTH 12 0
BBX 10 14 2 0
BITMAP
7800
3800
3800
3800
31C0
31C0
7380
7700
7C00
6E00
6600
E700
E380
E3C0
ENDCHAR
STARTCHAR l
ENCODING 108
SWIDTH 319 0
DWIDTH 6 0
BBX 6 14 1 0
BITMAP
7C
1C
18
38
38
38
30
30
70
70
70
60
E0
F8
ENDCHAR
STARTCHAR m
ENCODING 109
SWIDTH 969 0
DWIDTH 18 0
BBX 17 10 2 0
BITMAP
F9C700
33EF80
34FB80
78F380
79E300
71C300
61C700
618700
E18700
E38780
ENDCHAR
STARTCHAR n
ENCODING 110
SWIDTH 656 0
DWIDTH 12 0
BBX 11 10 2 0
BITMAP
F9C0
3BE0
36E0
7CE0
78C0
71C0
71C0
61C0
E1C0
E1E0
ENDCHAR
STARTCHAR o
ENCODING 111
SWIDTH 599 0
DWIDTH 11 0
BBX 11 10 1 0
BITMAP
0F80
19C0
30C0
70E0
E0C0
E1C0
E1C0
E180
F300
3C00
ENDCHAR
STARTCHAR p
ENCODING 112
SWIDTH 639 0
DWIDTH 12 0
BBX 12 14 1 -4
BITMAP
7CE0
39F0
3A70
3C70
3870
3860
70E0
70C0
7180
7E00
6000
E000
E000
E000
ENDCHAR
STARTCHAR q
ENCODING 113
SWIDTH 630 0
DWIDTH 12 0
BBX 11 14 1 -4
BITMAP
07E0
18E0
30E0
70C0
61C0
E3C0
E3C0
E5C0
F980
7380
0380
0380
0380
0300
ENDCHAR
STARTCHAR r
ENCODING 114
SWIDTH 496 0
DWIDTH 9 0
BBX 10 10 2 0
BITMAP
F9C0
3B80
3680
7C00
7800
7000
7000
6000
E000
E000
ENDCHAR
STARTCHAR s
ENCODING 115
SWIDTH 479 0
DWIDTH 9 0
BBX 9 10 1 0
BITMAP
1F80
3980
3100
3800
1C00
0E00
0700
C700
C600
7C00
ENDCHAR
STARTCHAR t
ENCODING 116
SWIDTH 375 0
DWIDTH 7 0
BBX 7 13 2 0
BITMAP
18
38
38
FE
70
70
70
70
60
E0
E0
E0
78
ENDCHAR
STARTCHAR u
ENCODING 117
SWIDTH 655 0
DWIDTH 12 0
BBX 11 10 2 0
BITMAP
F1E0
70E0
70C0
70C0
71C0
63C0
E7C0
ED80
FB80
73E0
ENDCHAR
STARTCHAR v
ENCODING 118
SWIDTH 584 0
DWIDTH 11 0
BBX 11 10 2 0
BITMAP
F0E0
70E0
30C0
38C0
3980
3900
1A00
1C00
1800
1000
ENDCHAR
STARTCHAR w
ENCODING 119
SWIDTH 822 0
DWIDTH 16 0
BBX 15 10 2 0
BITMAP
F08E
7186
3184
338C
3BC8
3CD0
3CE0
38E0
18C0
1080
ENDCHAR
STARTCHAR x
ENCODING 120
SWIDTH 534 0
DWIDTH 10 0
BBX 10 10 1 0
BITMAP
79C0
38C0
1D80
1D00
0E00
0E00
3700
6700
C380
C3C0
ENDCHAR
STARTCHAR y
ENCODING 121
SWIDTH 586 0
DWIDTH 11 0
BBX 13 14 0 -4
BITMAP
3C38
1C18
0C18
0E30
0E60
0E40
0680
0700
0700
0600
0400
0800
3000
F000
ENDCHAR
STARTCHAR z
ENCODING 122
SWIDTH 567 0
DWIDTH 11 0
BBX 11 10 1 0
BITMAP
3FE0
31C0
2380
0700
0F00
0E00
1C00
3840
70C0
FF80
ENDCHAR
STARTCHAR braceleft
ENCODING 123
SWIDTH 361 0
DWIDTH 7 0
BBX 7 18 2 -4
BITMAP
0E
1C
18
18
18
18
18
30
20
E0
70
30
70
60
E0
E0
E0
70
ENDCHAR
STARTCHAR bar
ENCODING 124
SWIDTH 253 0
DWIDTH 5 0
BBX 5 18 1 -4
BITMAP
18
18
18
10
10
30
30
30
20
20
60
60
60
40
40
C0
C0
C0
ENDCHAR
STARTCHAR braceright
ENCODING 125
SWIDTH 361 0
DWIDTH 7 0
BBX 7 18 1 -4
BITMAP
1C
0E
0E
0E
0C
1C
18
1C
0E
08
18
30
30
30
30
30
70
E0
ENDCHAR
STARTCHAR asciitilde
ENCODING 126
SWIDTH 636 0
DWIDTH 12 0
BBX 12 5 1 3
BITMAP
3810
4C10
8610
8320
81C0
ENDCHAR
STARTCHAR space
ENCODING 160
SWIDTH 333 0
DWIDTH 6 0
BBX 1 1 0 0
BITMAP
00
ENDCHAR
STARTCHAR exclamdown
ENCODING 161
SWIDTH 265 0
DWIDTH 5 0
BBX 5 14 1 -4
BITMAP
38
38
00
00
30
30
30
60
60
60
60
E0
E0
E0
ENDCHAR
STARTCHAR cent
ENCODING 162
SWIDTH 636 0
DWIDTH 12 0
BBX 10 14 3 0
BITMAP
0200
0200
0FC0
3AC0
7480
7400
E400
E400
E400
E400
F900
7F00
0800
0800
ENDCHAR
STARTCHAR sterling
ENCODING 163
SWIDTH 636 0
DWIDTH 12 0
BBX 11 14 2 0
BITMAP
03E0
0660
0E60
0C00
0C00
1C00
3F00
1C00
1800
1800
3800
2000
FF80
FF00
ENDCHAR
STARTCHAR currency
ENCODING 164
SWIDTH 636 0
DWIDTH 13 0
BBX 14 14 1 0
BITMAP
2004
100C
0F90
0CE0
0860
1820
1020
1060
1060
1040
1880
3FC0
4020
8010
ENDCHAR
STARTCHAR yen
ENCODING 165
SWIDTH 636 0
DWIDTH 12 0
BBX 13 14 2 0
BITMAP
F878
7030
3860
38C0
1C80
1D00
0E00
7F80
1C00
7F00
1C00
1C00
3C00
7E00
ENDCHAR
STARTCHAR brokenbar
ENCODING 166
SWIDTH 253 0
DWIDTH 5 0
BBX 5 18 1 -4
BITMAP
18
18
18
10
10
30
30
30
00
00
60
60
60
40
40
C0
C0
C0
ENDCHAR
STARTCHAR section
ENCODING 167
SWIDTH 636 0
DWIDTH 12 0
BBX 11 18 2 -4
BITMAP
07E0
1C60
1860
3800
3C00
1E00
1F80
33C0
31C0
70C0
3C80
3F00
0F80
0380
0180
C380
C300
FC00
ENDCHAR
STARTCHAR dieresis
ENCODING 168
SWIDTH 599 0
DWIDTH 11 0
BBX 6 1 6 13
BITMAP
CC
ENDCHAR
STARTCHAR copyright
ENCODING 169
SWIDTH 853 0
DWIDTH 16 0
BBX 14 14 2 0
BITMAP
07C0
1830
2018
43E8
4C24
9804
9804
9804
9804
5C04
4FC8
2018
1830
07C0
ENDCHAR
STARTCHAR ordfeminine
ENCODING 170
SWIDTH 468 0
DWIDTH 9 0
BBX 8 8 2 6
BITMAP
1F
33
67
E7
CE
D6
F6
6F
ENDCHAR
STARTCHAR guillemotleft
ENCODING 171
SWIDTH 527 0
DWIDTH 10 0
BBX 10 9 1 1
BITMAP
0840
1C80
3380
7700
EE00
6600
7300
3300
1100
ENDCHAR
STARTCHAR logicalnot
ENCODING 172
SWIDTH 636 0
DWIDTH 12 0
BBX 11 5 2 3
BITMAP
FFE0
0060
0060
0040
0040
ENDCHAR
STARTCHAR hyphen
ENCODING 173
SWIDTH 289 0
DWIDTH 5 0
BBX 5 1 1 6
BITMAP
F8
ENDCHAR
STARTCHAR registered
ENCODING 174
SWIDTH 636 0
DWIDTH 12 0
BBX 8 10 4 4
BITMAP
3C
42
FD
97
95
B9
A9
E5
42
3C
ENDCHAR
STARTCHAR macron
ENCODING 175
SWIDTH 599 0
DWIDTH 11 0
BBX 6 1 5 13
BITMAP
FC
ENDCHAR
STARTCHAR degree
ENCODING 176
SWIDTH 259 0
DWIDTH 5 0
BBX 3 4 4 10
BITMAP
60
A0
A0
60
ENDCHAR
STARTCHAR plusminus
ENCODING 177
SWIDTH 636 0
DWIDTH 12 0
BBX 13 12 0 0
BITMAP
0180
0100
0100
0100
7FF8
0300
0200
0200
0200
0000
0000
FFF0
ENDCHAR
STARTCHAR twosuperior
ENCODING 178
SWIDTH 381 0
DWIDTH 7 0
BBX 7 9 -10 5
BITMAP
3C
26
66
06
0C
30
60
40
FC
ENDCHAR
STARTCHAR threesuperior
ENCODING 179
SWIDTH 381 0
DWIDTH 7 0
BBX 6 9 -11 5
BITMAP
3C
6C
04
08
38
0C
0C
88
F0
ENDCHAR
STARTCHAR acute
ENCODING 180
SWIDTH 599 0
DWIDTH 11 0
BBX 5 3 7 11
BITMAP
38
60
C0
ENDCHAR
STARTCHAR mu
ENCODING 181
SWIDTH 687 0
DWIDTH 13 0
BBX 12 14 1 -4
BITMAP
79F0
3870
3870
38E0
38E0
31E0
71E0
72E0
7DC0
79F0
6000
E000
E000
E000
ENDCHAR
STARTCHAR paragraph
ENCODING 182
SWIDTH 636 0
DWIDTH 12 0
BBX 8 18 3 -4
BITMAP
3F
79
F9
F9
F1
F2
72
12
12
12
24
24
24
24
24
24
48
48
ENDCHAR
STARTCHAR periodcentered
ENCODING 183
SWIDTH 636 0
DWIDTH 12 0
BBX 3 2 6 5
BITMAP
E0
E0
ENDCHAR
STARTCHAR cedilla
ENCODING 184
SWIDTH 599 0
DWIDTH 11 0
BBX 3 4 3 -4
BITMAP
60
60
60
E0
ENDCHAR
STARTCHAR onesuperior
ENCODING 185
SWIDTH 381 0
DWIDTH 7 0
BBX 5 9 -11 5
BITMAP
38
18
18
10
30
30
30
30
F8
ENDCHAR
STARTCHAR ordmasculine
ENCODING 186
SWIDTH 468 0
DWIDTH 9 0
BBX 8 8 2 6
BITMAP
1E
33
63
E3
C3
C2
E6
78
ENDCHAR
STARTCHAR guillemotright
ENCODING 187
SWIDTH 527 0
DWIDTH 10 0
BBX 10 9 1 1
BITMAP
2200
3300
3380
1980
1DC0
3B80
7300
4E00
8400
ENDCHAR
STARTCHAR onequarter
ENCODING 188
SWIDTH 818 0
DWIDTH 16 0
BBX 15 14 3 0
BITMAP
3806
1808
1818
1030
3060
30CC
319C
3338
FE68
0CC8
18FC
3018
2018
C038
ENDCHAR
STARTCHAR onehalf
ENCODING 189
SWIDTH 818 0
DWIDTH 16 0
BBX 15 14 3 0
BITMAP
3806
1808
1818
1030
3060
30FC
31A6
3366
FE06
0C0C
1830
3060
2040
C0FC
ENDCHAR
STARTCHAR threequarters
ENCODING 190
SWIDTH 818 0
DWIDTH 16 0
BBX 15 14 3 0
BITMAP
3C06
6C08
0418
0830
3860
0CCC
0D9C
8B38
F668
0CC8
18FC
3018
2018
C038
ENDCHAR
STARTCHAR questiondown
ENCODING 191
SWIDTH 493 0
DWIDTH 9 0
BBX 8 14 1 -4
BITMAP
07
07
00
00
06
0C
0C
10
30
60
E0
E3
E3
7E
ENDCHAR
STARTCHAR Agrave
ENCODING 192
SWIDTH 765 0
DWIDTH 15 0
BBX 15 18 0 0
BITMAP
00E0
0060
0030
0000
0060
0060
00E0
0170
0170
0270
0630
0438
0838
0FF8
1038
201C
601C
F07E
ENDCHAR
STARTCHAR Aacute
ENCODING 193
SWIDTH 765 0
DWIDTH 15 0
BBX 15 18 0 0
BITMAP
001C
0030
0060
0000
0060
0060
00E0
0170
0170
0270
0630
0438
0838
0FF8
1038
201C
601C
F07E
ENDCHAR
STARTCHAR Acircumflex
ENCODING 194
SWIDTH 765 0
DWIDTH 15 0
BBX 15 18 0 0
BITMAP
0070
00F0
0198
0000
0060
0060
00E0
0170
0170
0270
0630
0438
0838
0FF8
1038
201C
601C
F07E
ENDCHAR
STARTCHAR Atilde
ENCODING 195
SWIDTH 765 0
DWIDTH 15 0
BBX 15 17 0 0
BITMAP
00E4
0138
0000
0060
0060
00E0
0170
0170
0270
0630
0438
0838
0FF8
1038
201C
601C
F07E
ENDCHAR
STARTCHAR Adieresis
ENCODING 196
SWIDTH 765 0
DWIDTH 15 0
BBX 15 16 0 0
BITMAP
00CC
0000
0060
0060
00E0
0170
0170
0270
0630
0438
0838
0FF8
1038
201C
601C
F07E
ENDCHAR
STARTCHAR Aring
ENCODING 197
SWIDTH 765 0
DWIDTH 15 0
BBX 15 18 0 0
BITMAP
0070
0050
0070
0000
0060
0060
00E0
0170
0170
0270
0630
0438
0838
0FF8
1038
201C
601C
F07E
ENDCHAR
STARTCHAR AE
ENCODING 198
SWIDTH 958 0
DWIDTH 18 0
BBX 20 14 0 0
BITMAP
001FF0
003C30
005C30
005C00
00B800
013840
023FC0
0638C0
043000
0FF000
107000
207000
6070C0
F1FFC0
ENDCHAR
STARTCHAR Ccedilla
ENCODING 199
SWIDTH 740 0
DWIDTH 14 0
BBX 13 18 2 -4
BITMAP
03F8
0E18
1818
3010
7000
7000
E000
E000
E000
E000
E000
7000
7860
1F80
0800
0C00
0C00
1C00
ENDCHAR
STARTCHAR Egrave
ENCODING 200
SWIDTH 630 0
DWIDTH 12 0
BBX 13 18 1 0
BITMAP
0380
0180
00C0
0000
1FF8
0E18
0E18
0C00
1C00
1C60
1FC0
1C40
1800
3800
3800
3820
3860
FFE0
ENDCHAR
STARTCHAR Eacute
ENCODING 201
SWIDTH 630 0
DWIDTH 12 0
BBX 13 18 1 0
BITMAP
0070
00C0
0180
0000
1FF8
0E18
0E18
0C00
1C00
1C60
1FC0
1C40
1800
3800
3800
3820
3860
FFE0
ENDCHAR
STARTCHAR Ecircumflex
ENCODING 202
SWIDTH 630 0
DWIDTH 12 0
BBX 13 18 1 0
BITMAP
01C0
03C0
0660
0000
1FF8
0E18
0E18
0C00
1C00
1C60
1FC0
1C40
1800
3800
3800
3820
3860
FFE0
ENDCHAR
STARTCHAR Edieresis
ENCODING 203
SWIDTH 630 0
DWIDTH 12 0
BBX 13 16 1 0
BITMAP
0330
0000
1FF8
0E18
0E18
0C00
1C00
1C60
1FC0
1C40
1800
3800
3800
3820
3860
FFE0
ENDCHAR
STARTCHAR Igrave
ENCODING 204
SWIDTH 372 0
DWIDTH 7 0
BBX 9 18 0 0
BITMAP
0E00
0600
0300
0000
1F80
0E00
0E00
0E00
0E00
1C00
1C00
1C00
1C00
1800
3800
3800
3800
FC00
ENDCHAR
STARTCHAR Iacute
ENCODING 205
SWIDTH 372 0
DWIDTH 7 0
BBX 9 18 0 0
BITMAP
0380
0600
0C00
0000
1F80
0E00
0E00
0E00
0E00
1C00
1C00
1C00
1C00
1800
3800
3800
3800
FC00
ENDCHAR
STARTCHAR Icircumflex
ENCODING 206
SWIDTH 372 0
DWIDTH 7 0
BBX 9 18 0 0
BITMAP
0700
0F00
1980
0000
1F80
0E00
0E00
0E00
0E00
1C00
1C00
1C00
1C00
1800
3800
3800
3800
FC00
ENDCHAR
STARTCHAR Idieresis
ENCODING 207
SWIDTH 372 0
DWIDTH 7 0
BBX 9 16 0 0
BITMAP
1980
0000
1F80
0E00
0E00
0E00
0E00
1C00
1C00
1C00
1C00
1800
3800
3800
3800
FC00
ENDCHAR
STARTCHAR Eth
ENCODING 208
SWIDTH 822 0
DWIDTH 16 0
BBX 16 14 0 0
BITMAP
1FF8
0E1E
0E0E
0E07
1C07
1C07
7F87
1C07
1C0E
380E
381C
3818
3870
FFC0
ENDCHAR
STARTCHAR Ntilde
ENCODING 209
SWIDTH 797 0
DWIDTH 15 0
BBX 17 17 0 0
BITMAP
00E400
013800
000000
1E0F80
0E0200
0F0200
0F0600
1B8600
1B8400
11C400
11C400
10EC00
306C00
307800
203800
203800
F81800
ENDCHAR
STARTCHAR Ograve
ENCODING 210
SWIDTH 831 0
DWIDTH 16 0
BBX 14 18 2 0
BITMAP
01C0
00C0
0060
0000
03F0
0E38
181C
381C
701C
701C
E01C
E01C
E01C
E038
E030
6060
70C0
1F00
ENDCHAR
STARTCHAR Oacute
ENCODING 211
SWIDTH 831 0
DWIDTH 16 0
BBX 14 18 2 0
BITMAP
0070
00C0
0180
0000
03F0
0E38
181C
381C
701C
701C
E01C
E01C
E01C
E038
E030
6060
70C0
1F00
ENDCHAR
STARTCHAR Ocircumflex
ENCODING 212
SWIDTH 831 0
DWIDTH 16 0
BBX 14 18 2 0
BITMAP
00E0
01E0
0330
0000
03F0
0E38
181C
381C
701C
701C
E01C
E01C
E01C
E038
E030
6060
70C0
1F00
ENDCHAR
STARTCHAR Otilde
ENCODING 213
SWIDTH 831 0
DWIDTH 16 0
BBX 14 17 2 0
BITMAP
01C8
0270
0000
03F0
0E38
181C
381C
701C
701C
E01C
E01C
E01C
E038
E030
6060
70C0
1F00
ENDCHAR
STARTCHAR Odieresis
ENCODING 214
SWIDTH 831 0
DWIDTH 16 0
BBX 14 16 2 0
BITMAP
0330
0000
03F0
0E38
181C
381C
701C
701C
E01C
E01C
E01C
E038
E030
6060
70C0
1F00
ENDCHAR
STARTCHAR multiply
ENCODING 215
SWIDTH 636 0
DWIDTH 12 0
BBX 13 12 1 0
BITMAP
1008
3018
1860
0CC0
0D80
0700
0700
0D80
1980
30C0
C060
8040
ENDCHAR
STARTCHAR Oslash
ENCODING 216
SWIDTH 831 0
DWIDTH 16 0
BBX 17 14 1 0
BITMAP
01F980
071E00
0C0E00
1C0E00
381700
386700
38C700
718E00
730E00
740C00
781C00
383800
386000
CF8000
ENDCHAR
STARTCHAR Ugrave
ENCODING 217
SWIDTH 775 0
DWIDTH 15 0
BBX 14 18 3 0
BITMAP
0700
0300
0180
0000
FC3C
7818
7010
7010
7010
7020
6020
E020
E020
E060
E040
E040
7080
3F00
ENDCHAR
STARTCHAR Uacute
ENCODING 218
SWIDTH 775 0
DWIDTH 15 0
BBX 14 18 3 0
BITMAP
00E0
0180
0300
0000
FC3C
7818
7010
7010
7010
7020
6020
E020
E020
E060
E040
E040
7080
3F00
ENDCHAR
STARTCHAR Ucircumflex
ENCODING 219
SWIDTH 775 0
DWIDTH 15 0
BBX 14 18 3 0
BITMAP
0380
0780
0CC0
0000
FC3C
7818
7010
7010
7010
7020
6020
E020
E020
E060
E040
E040
7080
3F00
ENDCHAR
STARTCHAR Udieresis
ENCODING 220
SWIDTH 775 0
DWIDTH 15 0
BBX 14 16 3 0
BITMAP
0660
0000
FC3C
7818
7010
7010
7010
7020
6020
E020
E020
E060
E040
E040
7080
3F00
ENDCHAR
STARTCHAR Yacute
ENCODING 221
SWIDTH 669 0
DWIDTH 13 0
BBX 13 18 2 0
BITMAP
01C0
0300
0600
0000
F878
7030
7060
3840
3880
1D00
1F00
0E00
1C00
1C00
1C00
1C00
3C00
7E00
ENDCHAR
STARTCHAR Thorn
ENCODING 222
SWIDTH 628 0
DWIDTH 12 0
BBX 12 14 1 0
BITMAP
3F00
0E00
0C00
1FE0
1C70
1C70
1870
1870
3860
38C0
3F80
3800
7800
FC00
ENDCHAR
STARTCHAR germandbls
ENCODING 223
SWIDTH 656 0
DWIDTH 12 0
BBX 11 19 1 -4
BITMAP
07C0
0CC0
1CE0
1CC0
1880
1900
3B00
3B00
3B80
31C0
30E0
7060
7460
74C0
6780
6000
E000
E000
E000
ENDCHAR
STARTCHAR agrave
ENCODING 224
SWIDTH 634 0
DWIDTH 12 0
BBX 11 14 1 0
BITMAP
0700
0300
0180
0000
07E0
18E0
30C0
70C0
61C0
E3C0
E3C0
E580
F980
73E0
ENDCHAR
STARTCHAR aacute
ENCODING 225
SWIDTH 634 0
DWIDTH 12 0
BBX 11 14 1 0
BITMAP
00E0
0180
0300
0000
07E0
18E0
30C0
70C0
61C0
E3C0
E3C0
E580
F980
73E0
ENDCHAR
STARTCHAR acircumflex
ENCODING 226
SWIDTH 634 0
DWIDTH 12 0
BBX 11 14 1 0
BITMAP
0380
0780
0CC0
0000
07E0
18E0
30C0
70C0
61C0
E3C0
E3C0
E580
F980
73E0
ENDCHAR
STARTCHAR atilde
ENCODING 227
SWIDTH 634 0
DWIDTH 12 0
BBX 11 13 1 0
BITMAP
0720
09C0
0000
07E0
18E0
30C0
70C0
61C0
E3C0
E3C0
E580
F980
73E0
ENDCHAR
STARTCHAR adieresis
ENCODING 228
SWIDTH 634 0
DWIDTH 12 0
BBX 11 12 1 0
BITMAP
0660
0000
07E0
18E0
30C0
70C0
61C0
E3C0
E3C0
E580
F980
73E0
ENDCHAR
STARTCHAR aring
ENCODING 229
SWIDTH 634 0
DWIDTH 12 0
BBX 11 14 1 0
BITMAP
0380
0280
0380
0000
07E0
18E0
30C0
70C0
61C0
E3C0
E3C0
E580
F980
73E0
ENDCHAR
STARTCHAR ae
ENCODING 230
SWIDTH 905 0
DWIDTH 17 0
BBX 16 10 1 0
BITMAP
07FE
18E7
30E7
70C7
61CE
E1F8
E3C0
E5C0
E8C3
707C
ENDCHAR
STARTCHAR ccedilla
ENCODING 231
SWIDTH 524 0
DWIDTH 10 0
BBX 10 14 1 -4
BITMAP
0FC0
1880
3080
7000
E000
E000
E000
E000
6100
3E00
2000
3000
3000
7000
ENDCHAR
STARTCHAR egrave
ENCODING 232
SWIDTH 548 0
DWIDTH 10 0
BBX 9 14 1 0
BITMAP
0E00
0600
0300
0000
0F00
1380
3180
6380
E700
FC00
E000
E000
F180
3F00
ENDCHAR
STARTCHAR eacute
ENCODING 233
SWIDTH 548 0
DWIDTH 10 0
BBX 10 14 1 0
BITMAP
01C0
0300
0600
0000
0F00
1380
3180
6380
E700
FC00
E000
E000
F180
3F00
ENDCHAR
STARTCHAR ecircumflex
ENCODING 234
SWIDTH 548 0
DWIDTH 10 0
BBX 9 14 1 0
BITMAP
0700
0F00
1980
0000
0F00
1380
3180
6380
E700
FC00
E000
E000
F180
3F00
ENDCHAR
STARTCHAR edieresis
ENCODING 235
SWIDTH 548 0
DWIDTH 10 0
BBX 10 12 1 0
BITMAP
0CC0
0000
0F00
1380
3180
6380
E700
FC00
E000
E000
F180
3F00
ENDCHAR
STARTCHAR igrave
ENCODING 236
SWIDTH 319 0
DWIDTH 6 0
BBX 6 14 2 0
BITMAP
38
18
0C
00
F8
38
30
70
70
70
70
60
E0
F8
ENDCHAR
STARTCHAR iacute
ENCODING 237
SWIDTH 319 0
DWIDTH 6 0
BBX 8 14 2 0
BITMAP
07
0C
18
00
F8
38
30
70
70
70
70
60
E0
F8
ENDCHAR
STARTCHAR icircumflex
ENCODING 238
SWIDTH 319 0
DWIDTH 6 0
BBX 7 14 2 0
BITMAP
1C
3C
66
00
F8
38
30
70
70
70
70
60
E0
F8
ENDCHAR
STARTCHAR idieresis
ENCODING 239
SWIDTH 319 0
DWIDTH 6 0
BBX 7 12 2 0
BITMAP
66
00
F8
38
30
70
70
70
70
60
E0
F8
ENDCHAR
STARTCHAR eth
ENCODING 240
SWIDTH 617 0
DWIDTH 12 0
BBX 10 15 2 0
BITMAP
00C0
3F00
0700
1F80
11C0
0FC0
19C0
30C0
60C0
60C0
E1C0
E180
E180
7300
3C00
ENDCHAR
STARTCHAR ntilde
ENCODING 241
SWIDTH 656 0
DWIDTH 12 0
BBX 11 13 2 0
BITMAP
0720
09C0
0000
F9C0
3BE0
36E0
7CE0
78C0
71C0
71C0
61C0
E1C0
E1E0
ENDCHAR
STARTCHAR ograve
ENCODING 242
SWIDTH 599 0
DWIDTH 11 0
BBX 11 14 1 0
BITMAP
0700
0300
0180
0000
0F80
19C0
30C0
70E0
E0C0
E1C0
E1C0
E180
F300
3C00
ENDCHAR
STARTCHAR oacute
ENCODING 243
SWIDTH 599 0
DWIDTH 11 0
BBX 11 14 1 0
BITMAP
01C0
0300
0600
0000
0F80
19C0
30C0
70E0
E0C0
E1C0
E1C0
E180
F300
3C00
ENDCHAR
STARTCHAR ocircumflex
ENCODING 244
SWIDTH 599 0
DWIDTH 11 0
BBX 11 14 1 0
BITMAP
0380
0780
0CC0
0000
0F80
19C0
30C0
70E0
E0C0
E1C0
E1C0
E180
F300
3C00
ENDCHAR
STARTCHAR otilde
ENCODING 245
SWIDTH 599 0
DWIDTH 11 0
BBX 11 13 1 0
BITMAP
0720
09C0
0000
0F80
19C0
30C0
70E0
E0C0
E1C0
E1C0
E180
F300
3C00
ENDCHAR
STARTCHAR odieresis
ENCODING 246
SWIDTH 599 0
DWIDTH 11 0
BBX 11 12 1 0
BITMAP
0CC0
0000
0F80
19C0
30C0
70E0
E0C0
E1C0
E1C0
E180
F300
3C00
ENDCHAR
STARTCHAR divide
ENCODING 247
SWIDTH 636 0
DWIDTH 12 0
BBX 11 10 2 0
BITMAP
0600
0600
0000
0000
0000
FFE0
0000
0000
0C00
0C00
ENDCHAR
STARTCHAR oslash
ENCODING 248
SWIDTH 599 0
DWIDTH 11 0
BBX 12 10 1 0
BITMAP
07F0
1CE0
38E0
3160
7260
74E0
78C0
70C0
7180
FE00
ENDCHAR
STARTCHAR ugrave
ENCODING 249
SWIDTH 655 0
DWIDTH 12 0
BBX 11 14 2 0
BITMAP
0700
0300
0180
0000
F1E0
70E0
70C0
70C0
71C0
63C0
E7C0
ED80
FB80
73E0
ENDCHAR
STARTCHAR uacute
ENCODING 250
SWIDTH 655 0
DWIDTH 12 0
BBX 11 14 2 0
BITMAP
00E0
0180
0300
0000
F1E0
70E0
70C0
70C0
71C0
63C0
E7C0
ED80
FB80
73E0
ENDCHAR
STARTCHAR ucircumflex
ENCODING 251
SWIDTH 655 0
DWIDTH 12 0
BBX 11 14 2 0
BITMAP
0380
0780
0CC0
0000
F1E0
70E0
70C0
70C0
71C0
63C0
E7C0
ED80
FB80
73E0
ENDCHAR
STARTCHAR udieresis
ENCODING 252
SWIDTH 655 0
DWIDTH 12 0
BBX 11 12 2 0
BITMAP
0CC0
0000
F1E0
70E0
70C0
70C0
71C0
63C0
E7C0
ED80
FB80
73E0
ENDCHAR
STARTCHAR yacute
ENCODING 253
SWIDTH 586 0
DWIDTH 11 0
BBX 13 18 0 -4
BITMAP
0070
00C0
0180
0000
3C38
1C18
0C18
0E30
0E60
0E40
0680
0700
0700
0600
0400
0800
3000
F000
ENDCHAR
STARTCHAR thorn
ENCODING 254
SWIDTH 639 0
DWIDTH 12 0
BBX 12 18 1 -4
BITMAP
3C00
1C00
1C00
1C00
18E0
39F0
3A70
3C70
3870
3860
70E0
70C0
7180
7E00
6000
E000
E000
E000
ENDCHAR
STARTCHAR ydieresis
ENCODING 255
SWIDTH 586 0
DWIDTH 11 0
BBX 13 16 0 -4
BITMAP
0330
0000
3C38
1C18
0C18
0E30
0E60
0E40
0680
0700
0700
0600
0400
0800
3000
F000
ENDCHAR
ENDFONT
